<svg width="195" height="174" viewBox="0 0 195 174" fill="none" xmlns="http://www.w3.org/2000/svg">
<g id="Group 6">
<g id="Group 4">
<rect id="Rectangle 25" x="2.38831" y="51.3329" width="190.364" height="22.6003" fill="#FFA200" stroke="black" stroke-width="3"/>
<rect id="Rectangle 26" x="8.47333" y="39.1636" width="178.195" height="22.6003" fill="#FFA200" stroke="black" stroke-width="3"/>
<rect id="Rectangle 27" x="14.558" y="27.8635" width="166.026" height="22.6003" fill="#FFA200" stroke="black" stroke-width="3"/>
<rect id="Rectangle 28" x="26.7273" y="17.4325" width="141.687" height="22.6003" fill="#FFA200" stroke="black" stroke-width="3"/>
<rect id="Rectangle 29" x="39.7659" y="7.87097" width="115.609" height="22.6003" fill="#FFA200" stroke="black" stroke-width="3"/>
<rect id="Rectangle 30" x="63.2355" y="1.78613" width="68.6702" height="22.6003" fill="#FFA200" stroke="black" stroke-width="3"/>
<rect id="Rectangle 31" x="3.25775" y="52.2023" width="188.626" height="20.8618" fill="#FFA200"/>
<rect id="Rectangle 32" x="9.34247" y="40.0328" width="176.456" height="20.8618" fill="#FFA200"/>
<rect id="Rectangle 33" x="15.427" y="28.7327" width="164.287" height="20.8618" fill="#FFA200"/>
<rect id="Rectangle 34" x="27.5967" y="18.3016" width="139.948" height="20.8618" fill="#FFA200"/>
<rect id="Rectangle 35" x="40.6354" y="8.74011" width="113.871" height="22.6003" fill="#FFA200"/>
<rect id="Rectangle 36" x="64.1047" y="2.6554" width="66.9318" height="22.6003" fill="#FFA200"/>
</g>
<g id="Group 5">
<g id="Group 3">
<rect id="Rectangle 31_2" x="20.6423" y="161.727" width="153.856" height="10.4309" fill="#FFA200" stroke="black" stroke-width="3"/>
<rect id="Rectangle 32_2" x="11.95" y="156.512" width="171.241" height="10.4309" fill="#FFA200" stroke="black" stroke-width="3"/>
<rect id="Rectangle 33_2" x="8.47314" y="140.865" width="178.195" height="20.8618" fill="#FFA200" stroke="black" stroke-width="3"/>
</g>
<g id="Group 4_2">
<rect id="Rectangle 31_3" x="21.5114" y="162.596" width="152.118" height="8.69244" fill="#FFA200"/>
<rect id="Rectangle 32_3" x="12.8192" y="157.381" width="169.502" height="8.69244" fill="#FFA200"/>
<rect id="Rectangle 33_3" x="9.34222" y="141.734" width="176.456" height="19.1234" fill="#FFA200"/>
</g>
</g>
<rect id="Rectangle 37" x="18.6657" y="76.3025" width="158.679" height="13.5156" fill="#CC0000" stroke="black" stroke-width="3"/>
<rect id="Rectangle 38" x="10.8423" y="121.503" width="173.456" height="17.8618" fill="#8CF745" stroke="black" stroke-width="3"/>
<rect id="Rectangle 39" x="8.2348" y="100.641" width="179.541" height="17.8618" fill="#AA6021" stroke="black" stroke-width="3"/>
<rect id="Rectangle 40" x="8.2348" y="92.8181" width="179.541" height="6.56168" fill="#F8D546" stroke="black" stroke-width="3"/>
</g>
</svg>
